<?xml version="1.0" encoding="UTF-8" standalone="no"?>
<!-- Created with Inkscape (http://www.inkscape.org/) -->

<svg
   version="1.1"
   id="svg1"
   width="165.18919"
   height="165.1144"
   viewBox="0 0 165.18919 165.11439"
   sodipodi:docname="logo-dark.svg"
   inkscape:version="1.4.3 (0d15f75, 2025-12-25)"
   xmlns:inkscape="http://www.inkscape.org/namespaces/inkscape"
   xmlns:sodipodi="http://sodipodi.sourceforge.net/DTD/sodipodi-0.dtd"
   xmlns="http://www.w3.org/2000/svg"
   xmlns:svg="http://www.w3.org/2000/svg">
  <defs
     id="defs1" />
  <sodipodi:namedview
     id="namedview1"
     pagecolor="#ffffff"
     bordercolor="#000000"
     borderopacity="0.25"
     inkscape:showpageshadow="2"
     inkscape:pageopacity="0.0"
     inkscape:pagecheckerboard="0"
     inkscape:deskcolor="#d1d1d1"
     inkscape:zoom="0.63"
     inkscape:cx="82.539683"
     inkscape:cy="87.301587"
     inkscape:window-width="1920"
     inkscape:window-height="1000"
     inkscape:window-x="0"
     inkscape:window-y="0"
     inkscape:window-maximized="1"
     inkscape:current-layer="g1" />
  <g
     inkscape:groupmode="layer"
     inkscape:label="Image"
     id="g1"
     transform="translate(-588.97298,-789.66362)">
    <path
       style="fill:#000000;fill-opacity:1"
       d="m 665.2973,953.51712 c -0.59459,-0.67534 -1.08108,-1.45705 -1.08108,-1.73713 0,-2.64239 -16.73477,-27.25667 -24.76997,-36.43282 -2.4451,-2.79229 -7.30996,-8.34263 -10.81081,-12.33408 -3.50084,-3.99145 -9.12664,-11.19145 -12.50177,-16 -8.97556,-12.78748 -9.32181,-12.56307 -9.8634,6.39232 l -0.43243,15.13513 -7.20322,0.43244 c -3.96177,0.23783 -7.75636,0.1212 -8.43243,-0.2592 -1.0431,-0.5869 -1.22921,-9.39294 -1.22921,-58.16216 0,-31.60879 0.32733,-57.47054 0.72741,-57.47054 0.40008,0 1.83207,2.04325 3.18221,4.54054 2.64965,4.90097 8.92846,13.61791 9.81591,13.62754 0.2996,0.003 1.50732,1.46271 2.6838,3.24324 2.10167,3.18074 21.50071,22.90432 28.18392,28.65543 1.87371,1.61239 5.74188,5.11053 8.59594,7.77365 5.0704,4.73121 10.08317,8.9359 20.92875,17.55498 4.18306,3.32432 5.22836,4.60787 4.75676,5.84095 -0.80826,2.1133 -11.99016,12.16908 -13.53187,12.16908 -0.66951,0 -2.04918,-1.07027 -3.06594,-2.37838 -2.11542,-2.72158 -15.35217,-17.23614 -17.30392,-18.97435 -0.71351,-0.63545 -6.16216,-5.81313 -12.10811,-11.50596 -7.28423,-6.97415 -11.45445,-10.35615 -12.7839,-10.36758 -2.37828,-0.0205 -2.49748,0.31454 -3.19442,8.97702 l -0.54964,6.83182 6.31803,6.25171 c 9.05347,8.95843 15.98222,16.32614 22.3447,23.76031 8.78331,10.26278 12.38047,13.83784 13.92339,13.83784 0.78928,0 5.85448,-4.49402 11.25601,-9.98671 5.40153,-5.49269 19.09243,-19.21161 30.42422,-30.48649 11.33179,-11.27487 22.33464,-22.22633 24.45079,-24.33657 2.11615,-2.11024 3.71177,-4.25078 3.54582,-4.75676 -0.16596,-0.50597 -2.41206,-1.11455 -4.99134,-1.35239 l -4.6896,-0.43243 4.75675,-4.7798 c 6.25196,-6.28224 25.86164,-24.56068 32.43243,-30.2307 2.85406,-2.4628 5.50042,-5.03078 5.88082,-5.70663 0.9609,-1.70725 2.33913,-1.53791 2.31716,0.2847 -0.0385,3.19751 -4.15205,12.97367 -7.45992,17.72922 -3.20964,4.61435 -12.7396,15.55345 -18.97432,21.77996 -1.46779,1.46586 -2.82995,3.11784 -3.02703,3.67107 -0.19708,0.55323 -6.19616,6.99751 -13.3313,14.32061 -7.13514,7.32311 -18.61622,19.29593 -25.51351,26.60629 -6.8973,7.31035 -13.70811,14.52251 -15.13514,16.02702 -6.34364,6.68807 -6.72426,7.40079 -7.1107,13.31501 -0.34999,5.35628 2.20567,21.82597 3.60375,23.22405 0.91606,0.91606 3.32457,-1.04535 5.02815,-4.09475 3.4046,-6.09424 12.45521,-16.9748 22.5328,-27.08872 9.57739,-9.61192 13.79794,-13.54591 25.00379,-23.30613 7.13886,-6.21791 8.30754,-7.19156 13.76473,-11.46778 3.02599,-2.37114 5.6964,-4.55072 5.93424,-4.8435 0.23784,-0.29278 1.4054,-1.04295 2.59459,-1.66704 2.96017,-1.55352 8.82932,-6.14671 10.20841,-7.9891 1.27925,-1.70899 2.76457,-2.0023 2.76457,-0.54591 0,1.05399 -6.41015,9.32443 -11.24325,14.50616 -1.66486,1.78496 -9.31917,9.83358 -17.00956,17.88581 -7.6904,8.05224 -15.81805,16.58638 -18.06145,18.96476 -11.59949,12.29738 -30.90496,38.18525 -37.89136,50.81081 -1.77672,3.21081 -3.30864,5.82303 -3.40428,5.80494 -0.0956,-0.0181 -0.66037,-0.58545 -1.25497,-1.2608 z"
       id="path1" />
  </g>
</svg>
