<svg xmlns="http://www.w3.org/2000/svg" xmlns:xlink="http://www.w3.org/1999/xlink" contentStyleType="text/css" data-diagram-type="DESCRIPTION" height="683px" preserveAspectRatio="none" style="width:2759px;height:683px;background:#FFFFFF;" version="1.1" viewBox="0 0 2759 683" width="2759px" zoomAndPan="magnify"><?plantuml 1.2026.3beta6?><defs/><g><!--cluster chora--><g class="cluster" data-qualified-name="chora" data-source-line="20" id="ent0002"><path d="M8.5,6 L53.7354,6 A3.75,3.75 0 0 1 56.2354,8.5 L63.2354,28.2969 L2531.5,28.2969 A2.5,2.5 0 0 1 2534,30.7969 L2534,652.98 A2.5,2.5 0 0 1 2531.5,655.48 L8.5,655.48 A2.5,2.5 0 0 1 6,652.98 L6,8.5 A2.5,2.5 0 0 1 8.5,6" fill="none" style="stroke:#000000;stroke-width:1.5;"/><line style="stroke:#000000;stroke-width:1.5;" x1="6" x2="63.2354" y1="28.2969" y2="28.2969"/><text fill="#000000" font-family="sans-serif" font-size="14" font-weight="700" lengthAdjust="spacing" textLength="44.2354" x="10" y="20.9951">chora</text></g><!--cluster router--><g class="cluster" data-qualified-name="chora.router" data-source-line="21" id="ent0003"><path d="M32.5,49 L83.0811,49 A3.75,3.75 0 0 1 85.5811,51.5 L92.5811,71.2969 L1074.5,71.2969 A2.5,2.5 0 0 1 1077,73.7969 L1077,265.09 A2.5,2.5 0 0 1 1074.5,267.59 L32.5,267.59 A2.5,2.5 0 0 1 30,265.09 L30,51.5 A2.5,2.5 0 0 1 32.5,49" fill="none" style="stroke:#000000;stroke-width:1.5;"/><line style="stroke:#000000;stroke-width:1.5;" x1="30" x2="92.5811" y1="71.2969" y2="71.2969"/><text fill="#000000" font-family="sans-serif" font-size="14" font-weight="700" lengthAdjust="spacing" textLength="49.5811" x="34" y="63.9951">router</text></g><!--cluster graphql_api--><g class="cluster" data-qualified-name="chora.graphql_api" data-source-line="31" id="ent0011"><path d="M1514.5,49 L1607.9492,49 A3.75,3.75 0 0 1 1610.4492,51.5 L1617.4492,71.2969 L1810.5,71.2969 A2.5,2.5 0 0 1 1813,73.7969 L1813,143.79 A2.5,2.5 0 0 1 1810.5,146.29 L1514.5,146.29 A2.5,2.5 0 0 1 1512,143.79 L1512,51.5 A2.5,2.5 0 0 1 1514.5,49" fill="none" style="stroke:#000000;stroke-width:1.5;"/><line style="stroke:#000000;stroke-width:1.5;" x1="1512" x2="1617.4492" y1="71.2969" y2="71.2969"/><text fill="#000000" font-family="sans-serif" font-size="14" font-weight="700" lengthAdjust="spacing" textLength="92.4492" x="1516" y="63.9951">graphql_api</text></g><!--cluster security--><g class="cluster" data-qualified-name="chora.security" data-source-line="36" id="ent0014"><path d="M2181.5,49 L2246.1152,49 A3.75,3.75 0 0 1 2248.6152,51.5 L2255.6152,71.2969 L2507.5,71.2969 A2.5,2.5 0 0 1 2510,73.7969 L2510,265.09 A2.5,2.5 0 0 1 2507.5,267.59 L2181.5,267.59 A2.5,2.5 0 0 1 2179,265.09 L2179,51.5 A2.5,2.5 0 0 1 2181.5,49" fill="none" style="stroke:#000000;stroke-width:1.5;"/><line style="stroke:#000000;stroke-width:1.5;" x1="2179" x2="2255.6152" y1="71.2969" y2="71.2969"/><text fill="#000000" font-family="sans-serif" font-size="14" font-weight="700" lengthAdjust="spacing" textLength="63.6152" x="2183" y="63.9951">security</text></g><!--cluster service--><g class="cluster" data-qualified-name="chora.service" data-source-line="43" id="ent0018"><path d="M1103.5,170.29 L1160.9512,170.29 A3.75,3.75 0 0 1 1163.4512,172.79 L1170.4512,192.5869 L2152.5,192.5869 A2.5,2.5 0 0 1 2155,195.0869 L2155,265.09 A2.5,2.5 0 0 1 2152.5,267.59 L1103.5,267.59 A2.5,2.5 0 0 1 1101,265.09 L1101,172.79 A2.5,2.5 0 0 1 1103.5,170.29" fill="none" style="stroke:#000000;stroke-width:1.5;"/><line style="stroke:#000000;stroke-width:1.5;" x1="1101" x2="1170.4512" y1="192.5869" y2="192.5869"/><text fill="#000000" font-family="sans-serif" font-size="14" font-weight="700" lengthAdjust="spacing" textLength="56.4512" x="1105" y="185.2851">service</text></g><!--cluster repository--><g class="cluster" data-qualified-name="chora.repository" data-source-line="52" id="ent0025"><path d="M1350.5,291.59 L1433.0117,291.59 A3.75,3.75 0 0 1 1435.5117,294.09 L1442.5117,313.8869 L1714.5,313.8869 A2.5,2.5 0 0 1 1717,316.3869 L1717,507.68 A2.5,2.5 0 0 1 1714.5,510.18 L1350.5,510.18 A2.5,2.5 0 0 1 1348,507.68 L1348,294.09 A2.5,2.5 0 0 1 1350.5,291.59" fill="none" style="stroke:#000000;stroke-width:1.5;"/><line style="stroke:#000000;stroke-width:1.5;" x1="1348" x2="1442.5117" y1="313.8869" y2="313.8869"/><text fill="#000000" font-family="sans-serif" font-size="14" font-weight="700" lengthAdjust="spacing" textLength="81.5117" x="1352" y="306.5851">repository</text></g><!--cluster entity--><g class="cluster" data-qualified-name="chora.entity" data-source-line="58" id="ent0029"><path d="M1049.5,412.89 L1097.2715,412.89 A3.75,3.75 0 0 1 1099.7715,415.39 L1106.7715,435.1869 L1321.5,435.1869 A2.5,2.5 0 0 1 1324,437.6869 L1324,628.98 A2.5,2.5 0 0 1 1321.5,631.48 L1049.5,631.48 A2.5,2.5 0 0 1 1047,628.98 L1047,415.39 A2.5,2.5 0 0 1 1049.5,412.89" fill="none" style="stroke:#000000;stroke-width:1.5;"/><line style="stroke:#000000;stroke-width:1.5;" x1="1047" x2="1106.7715" y1="435.1869" y2="435.1869"/><text fill="#000000" font-family="sans-serif" font-size="14" font-weight="700" lengthAdjust="spacing" textLength="46.7715" x="1051" y="427.8851">entity</text></g><!--cluster config--><g class="cluster" data-qualified-name="chora.config" data-source-line="65" id="ent0034"><path d="M64.5,291.59 L114.2949,291.59 A3.75,3.75 0 0 1 116.7949,294.09 L123.7949,313.8869 L304.5,313.8869 A2.5,2.5 0 0 1 307,316.3869 L307,507.68 A2.5,2.5 0 0 1 304.5,510.18 L64.5,510.18 A2.5,2.5 0 0 1 62,507.68 L62,294.09 A2.5,2.5 0 0 1 64.5,291.59" fill="none" style="stroke:#000000;stroke-width:1.5;"/><line style="stroke:#000000;stroke-width:1.5;" x1="62" x2="123.7949" y1="313.8869" y2="313.8869"/><text fill="#000000" font-family="sans-serif" font-size="14" font-weight="700" lengthAdjust="spacing" textLength="48.7949" x="66" y="306.5851">config</text></g><!--cluster PostgreSQL--><g class="cluster" data-qualified-name="PostgreSQL" data-source-line="73" id="ent0039"><path d="M2560.5,534.18 L2653.7305,534.18 A3.75,3.75 0 0 1 2656.2305,536.68 L2663.2305,556.4769 L2713.5,556.4769 A2.5,2.5 0 0 1 2716,558.9769 L2716,628.98 A2.5,2.5 0 0 1 2713.5,631.48 L2560.5,631.48 A2.5,2.5 0 0 1 2558,628.98 L2558,536.68 A2.5,2.5 0 0 1 2560.5,534.18" fill="none" style="stroke:#000000;stroke-width:1.5;"/><line style="stroke:#000000;stroke-width:1.5;" x1="2558" x2="2663.2305" y1="556.4769" y2="556.4769"/><text fill="#000000" font-family="sans-serif" font-size="14" font-weight="700" lengthAdjust="spacing" textLength="92.2305" x="2562" y="549.1751">PostgreSQL</text></g><!--cluster Keycloak--><g class="cluster" data-qualified-name="Keycloak" data-source-line="77" id="ent0041"><path d="M2560.5,291.59 L2632.4434,291.59 A3.75,3.75 0 0 1 2634.9434,294.09 L2641.9434,313.8869 L2741.5,313.8869 A2.5,2.5 0 0 1 2744,316.3869 L2744,386.39 A2.5,2.5 0 0 1 2741.5,388.89 L2560.5,388.89 A2.5,2.5 0 0 1 2558,386.39 L2558,294.09 A2.5,2.5 0 0 1 2560.5,291.59" fill="none" style="stroke:#000000;stroke-width:1.5;"/><line style="stroke:#000000;stroke-width:1.5;" x1="2558" x2="2641.9434" y1="313.8869" y2="313.8869"/><text fill="#000000" font-family="sans-serif" font-size="14" font-weight="700" lengthAdjust="spacing" textLength="70.9434" x="2562" y="306.5851">Keycloak</text></g><!--entity artist_router--><g class="entity" data-qualified-name="chora.router.artist_router" data-source-line="22" id="ent0004"><rect fill="#F1F1F1" height="46.2969" rx="2.5" ry="2.5" style="stroke:#181818;stroke-width:0.5;" width="126.5498" x="371.73" y="84"/><rect fill="#F1F1F1" height="10" style="stroke:#181818;stroke-width:0.5;" width="15" x="478.2798" y="89"/><rect fill="#F1F1F1" height="2" style="stroke:#181818;stroke-width:0.5;" width="4" x="476.2798" y="91"/><rect fill="#F1F1F1" height="2" style="stroke:#181818;stroke-width:0.5;" width="4" x="476.2798" y="95"/><text fill="#000000" font-family="sans-serif" font-size="14" lengthAdjust="spacing" textLength="86.5498" x="386.73" y="116.9951">artist_router</text></g><!--entity artist_write_router--><g class="entity" data-qualified-name="chora.router.artist_write_router" data-source-line="23" id="ent0005"><rect fill="#F1F1F1" height="46.2969" rx="2.5" ry="2.5" style="stroke:#181818;stroke-width:0.5;" width="168.748" x="892.63" y="84"/><rect fill="#F1F1F1" height="10" style="stroke:#181818;stroke-width:0.5;" width="15" x="1041.378" y="89"/><rect fill="#F1F1F1" height="2" style="stroke:#181818;stroke-width:0.5;" width="4" x="1039.378" y="91"/><rect fill="#F1F1F1" height="2" style="stroke:#181818;stroke-width:0.5;" width="4" x="1039.378" y="95"/><text fill="#000000" font-family="sans-serif" font-size="14" lengthAdjust="spacing" textLength="128.748" x="907.63" y="116.9951">artist_write_router</text></g><!--entity song_router--><g class="entity" data-qualified-name="chora.router.song_router" data-source-line="24" id="ent0006"><rect fill="#F1F1F1" height="46.2969" rx="2.5" ry="2.5" style="stroke:#181818;stroke-width:0.5;" width="123.6719" x="533.16" y="84"/><rect fill="#F1F1F1" height="10" style="stroke:#181818;stroke-width:0.5;" width="15" x="636.8319" y="89"/><rect fill="#F1F1F1" height="2" style="stroke:#181818;stroke-width:0.5;" width="4" x="634.8319" y="91"/><rect fill="#F1F1F1" height="2" style="stroke:#181818;stroke-width:0.5;" width="4" x="634.8319" y="95"/><text fill="#000000" font-family="sans-serif" font-size="14" lengthAdjust="spacing" textLength="83.6719" x="548.16" y="116.9951">song_router</text></g><!--entity song_write_router--><g class="entity" data-qualified-name="chora.router.song_write_router" data-source-line="25" id="ent0007"><rect fill="#F1F1F1" height="46.2969" rx="2.5" ry="2.5" style="stroke:#181818;stroke-width:0.5;" width="165.8701" x="692.06" y="84"/><rect fill="#F1F1F1" height="10" style="stroke:#181818;stroke-width:0.5;" width="15" x="837.9301" y="89"/><rect fill="#F1F1F1" height="2" style="stroke:#181818;stroke-width:0.5;" width="4" x="835.9301" y="91"/><rect fill="#F1F1F1" height="2" style="stroke:#181818;stroke-width:0.5;" width="4" x="835.9301" y="95"/><text fill="#000000" font-family="sans-serif" font-size="14" lengthAdjust="spacing" textLength="125.8701" x="707.06" y="116.9951">song_write_router</text></g><!--entity auth_router--><g class="entity" data-qualified-name="chora.router.auth_router" data-source-line="26" id="ent0008"><rect fill="#F1F1F1" height="46.2969" rx="2.5" ry="2.5" style="stroke:#181818;stroke-width:0.5;" width="121.8672" x="46.07" y="84"/><rect fill="#F1F1F1" height="10" style="stroke:#181818;stroke-width:0.5;" width="15" x="147.9372" y="89"/><rect fill="#F1F1F1" height="2" style="stroke:#181818;stroke-width:0.5;" width="4" x="145.9372" y="91"/><rect fill="#F1F1F1" height="2" style="stroke:#181818;stroke-width:0.5;" width="4" x="145.9372" y="95"/><text fill="#000000" font-family="sans-serif" font-size="14" lengthAdjust="spacing" textLength="81.8672" x="61.07" y="116.9951">auth_router</text></g><!--entity health_router--><g class="entity" data-qualified-name="chora.router.health_router" data-source-line="27" id="ent0009"><rect fill="#F1F1F1" height="46.2969" rx="2.5" ry="2.5" style="stroke:#181818;stroke-width:0.5;" width="134.3701" x="202.81" y="84"/><rect fill="#F1F1F1" height="10" style="stroke:#181818;stroke-width:0.5;" width="15" x="317.1801" y="89"/><rect fill="#F1F1F1" height="2" style="stroke:#181818;stroke-width:0.5;" width="4" x="315.1801" y="91"/><rect fill="#F1F1F1" height="2" style="stroke:#181818;stroke-width:0.5;" width="4" x="315.1801" y="95"/><text fill="#000000" font-family="sans-serif" font-size="14" lengthAdjust="spacing" textLength="94.3701" x="217.81" y="116.9951">health_router</text></g><!--entity shutdown_router--><g class="entity" data-qualified-name="chora.router.shutdown_router" data-source-line="28" id="ent0010"><rect fill="#F1F1F1" height="46.2969" rx="2.5" ry="2.5" style="stroke:#181818;stroke-width:0.5;" width="158.3574" x="45.82" y="205.29"/><rect fill="#F1F1F1" height="10" style="stroke:#181818;stroke-width:0.5;" width="15" x="184.1774" y="210.29"/><rect fill="#F1F1F1" height="2" style="stroke:#181818;stroke-width:0.5;" width="4" x="182.1774" y="212.29"/><rect fill="#F1F1F1" height="2" style="stroke:#181818;stroke-width:0.5;" width="4" x="182.1774" y="216.29"/><text fill="#000000" font-family="sans-serif" font-size="14" lengthAdjust="spacing" textLength="118.3574" x="60.82" y="238.2851">shutdown_router</text></g><!--entity schema--><g class="entity" data-qualified-name="chora.graphql_api.schema" data-source-line="32" id="ent0012"><rect fill="#F1F1F1" height="46.2969" rx="2.5" ry="2.5" style="stroke:#181818;stroke-width:0.5;" width="94.6943" x="1527.65" y="84"/><rect fill="#F1F1F1" height="10" style="stroke:#181818;stroke-width:0.5;" width="15" x="1602.3443" y="89"/><rect fill="#F1F1F1" height="2" style="stroke:#181818;stroke-width:0.5;" width="4" x="1600.3443" y="91"/><rect fill="#F1F1F1" height="2" style="stroke:#181818;stroke-width:0.5;" width="4" x="1600.3443" y="95"/><text fill="#000000" font-family="sans-serif" font-size="14" lengthAdjust="spacing" textLength="54.6943" x="1542.65" y="116.9951">schema</text></g><!--entity graphql_types--><g class="entity" data-qualified-name="chora.graphql_api.graphql_types" data-source-line="33" id="ent0013"><rect fill="#F1F1F1" height="46.2969" rx="2.5" ry="2.5" style="stroke:#181818;stroke-width:0.5;" width="139.3262" x="1657.34" y="84"/><rect fill="#F1F1F1" height="10" style="stroke:#181818;stroke-width:0.5;" width="15" x="1776.6662" y="89"/><rect fill="#F1F1F1" height="2" style="stroke:#181818;stroke-width:0.5;" width="4" x="1774.6662" y="91"/><rect fill="#F1F1F1" height="2" style="stroke:#181818;stroke-width:0.5;" width="4" x="1774.6662" y="95"/><text fill="#000000" font-family="sans-serif" font-size="14" lengthAdjust="spacing" textLength="99.3262" x="1672.34" y="116.9951">graphql_types</text></g><!--entity token_service--><g class="entity" data-qualified-name="chora.security.token_service" data-source-line="37" id="ent0015"><rect fill="#F1F1F1" height="46.2969" rx="2.5" ry="2.5" style="stroke:#181818;stroke-width:0.5;" width="136.7969" x="2194.6" y="84"/><rect fill="#F1F1F1" height="10" style="stroke:#181818;stroke-width:0.5;" width="15" x="2311.3969" y="89"/><rect fill="#F1F1F1" height="2" style="stroke:#181818;stroke-width:0.5;" width="4" x="2309.3969" y="91"/><rect fill="#F1F1F1" height="2" style="stroke:#181818;stroke-width:0.5;" width="4" x="2309.3969" y="95"/><text fill="#000000" font-family="sans-serif" font-size="14" lengthAdjust="spacing" textLength="96.7969" x="2209.6" y="116.9951">token_service</text></g><!--entity user_service--><g class="entity" data-qualified-name="chora.security.user_service" data-source-line="38" id="ent0016"><rect fill="#F1F1F1" height="46.2969" rx="2.5" ry="2.5" style="stroke:#181818;stroke-width:0.5;" width="127.6846" x="2366.16" y="84"/><rect fill="#F1F1F1" height="10" style="stroke:#181818;stroke-width:0.5;" width="15" x="2473.8446" y="89"/><rect fill="#F1F1F1" height="2" style="stroke:#181818;stroke-width:0.5;" width="4" x="2471.8446" y="91"/><rect fill="#F1F1F1" height="2" style="stroke:#181818;stroke-width:0.5;" width="4" x="2471.8446" y="95"/><text fill="#000000" font-family="sans-serif" font-size="14" lengthAdjust="spacing" textLength="87.6846" x="2381.16" y="116.9951">user_service</text></g><!--entity roles_required--><g class="entity" data-qualified-name="chora.security.roles_required" data-source-line="39" id="ent0017"><rect fill="#F1F1F1" height="46.2969" rx="2.5" ry="2.5" style="stroke:#181818;stroke-width:0.5;" width="140.3926" x="2194.8" y="205.29"/><rect fill="#F1F1F1" height="10" style="stroke:#181818;stroke-width:0.5;" width="15" x="2315.1926" y="210.29"/><rect fill="#F1F1F1" height="2" style="stroke:#181818;stroke-width:0.5;" width="4" x="2313.1926" y="212.29"/><rect fill="#F1F1F1" height="2" style="stroke:#181818;stroke-width:0.5;" width="4" x="2313.1926" y="216.29"/><text fill="#000000" font-family="sans-serif" font-size="14" lengthAdjust="spacing" textLength="100.3926" x="2209.8" y="238.2851">roles_required</text></g><!--entity ArtistService--><g class="entity" data-qualified-name="chora.service.ArtistService" data-source-line="44" id="ent0019"><rect fill="#F1F1F1" height="46.2969" rx="2.5" ry="2.5" style="stroke:#181818;stroke-width:0.5;" width="129.2363" x="1117.38" y="205.29"/><rect fill="#F1F1F1" height="10" style="stroke:#181818;stroke-width:0.5;" width="15" x="1226.6163" y="210.29"/><rect fill="#F1F1F1" height="2" style="stroke:#181818;stroke-width:0.5;" width="4" x="1224.6163" y="212.29"/><rect fill="#F1F1F1" height="2" style="stroke:#181818;stroke-width:0.5;" width="4" x="1224.6163" y="216.29"/><text fill="#000000" font-family="sans-serif" font-size="14" lengthAdjust="spacing" textLength="89.2363" x="1132.38" y="238.2851">ArtistService</text></g><!--entity ArtistWriteService--><g class="entity" data-qualified-name="chora.service.ArtistWriteService" data-source-line="45" id="ent0020"><rect fill="#F1F1F1" height="46.2969" rx="2.5" ry="2.5" style="stroke:#181818;stroke-width:0.5;" width="166.8271" x="1643.59" y="205.29"/><rect fill="#F1F1F1" height="10" style="stroke:#181818;stroke-width:0.5;" width="15" x="1790.4171" y="210.29"/><rect fill="#F1F1F1" height="2" style="stroke:#181818;stroke-width:0.5;" width="4" x="1788.4171" y="212.29"/><rect fill="#F1F1F1" height="2" style="stroke:#181818;stroke-width:0.5;" width="4" x="1788.4171" y="216.29"/><text fill="#000000" font-family="sans-serif" font-size="14" lengthAdjust="spacing" textLength="126.8271" x="1658.59" y="238.2851">ArtistWriteService</text></g><!--entity SongService--><g class="entity" data-qualified-name="chora.service.SongService" data-source-line="46" id="ent0021"><rect fill="#F1F1F1" height="46.2969" rx="2.5" ry="2.5" style="stroke:#181818;stroke-width:0.5;" width="126.9531" x="1281.52" y="205.29"/><rect fill="#F1F1F1" height="10" style="stroke:#181818;stroke-width:0.5;" width="15" x="1388.4731" y="210.29"/><rect fill="#F1F1F1" height="2" style="stroke:#181818;stroke-width:0.5;" width="4" x="1386.4731" y="212.29"/><rect fill="#F1F1F1" height="2" style="stroke:#181818;stroke-width:0.5;" width="4" x="1386.4731" y="216.29"/><text fill="#000000" font-family="sans-serif" font-size="14" lengthAdjust="spacing" textLength="86.9531" x="1296.52" y="238.2851">SongService</text></g><!--entity SongWriteService--><g class="entity" data-qualified-name="chora.service.SongWriteService" data-source-line="47" id="ent0022"><rect fill="#F1F1F1" height="46.2969" rx="2.5" ry="2.5" style="stroke:#181818;stroke-width:0.5;" width="164.5439" x="1443.73" y="205.29"/><rect fill="#F1F1F1" height="10" style="stroke:#181818;stroke-width:0.5;" width="15" x="1588.2739" y="210.29"/><rect fill="#F1F1F1" height="2" style="stroke:#181818;stroke-width:0.5;" width="4" x="1586.2739" y="212.29"/><rect fill="#F1F1F1" height="2" style="stroke:#181818;stroke-width:0.5;" width="4" x="1586.2739" y="216.29"/><text fill="#000000" font-family="sans-serif" font-size="14" lengthAdjust="spacing" textLength="124.5439" x="1458.73" y="238.2851">SongWriteService</text></g><!--entity TokenService--><g class="entity" data-qualified-name="chora.service.TokenService" data-source-line="48" id="ent0023"><rect fill="#F1F1F1" height="46.2969" rx="2.5" ry="2.5" style="stroke:#181818;stroke-width:0.5;" width="134.4521" x="1845.77" y="205.29"/><rect fill="#F1F1F1" height="10" style="stroke:#181818;stroke-width:0.5;" width="15" x="1960.2221" y="210.29"/><rect fill="#F1F1F1" height="2" style="stroke:#181818;stroke-width:0.5;" width="4" x="1958.2221" y="212.29"/><rect fill="#F1F1F1" height="2" style="stroke:#181818;stroke-width:0.5;" width="4" x="1958.2221" y="216.29"/><text fill="#000000" font-family="sans-serif" font-size="14" lengthAdjust="spacing" textLength="94.4521" x="1860.77" y="238.2851">TokenService</text></g><!--entity UserService--><g class="entity" data-qualified-name="chora.service.UserService" data-source-line="49" id="ent0024"><rect fill="#F1F1F1" height="46.2969" rx="2.5" ry="2.5" style="stroke:#181818;stroke-width:0.5;" width="123.6514" x="2015.17" y="205.29"/><rect fill="#F1F1F1" height="10" style="stroke:#181818;stroke-width:0.5;" width="15" x="2118.8214" y="210.29"/><rect fill="#F1F1F1" height="2" style="stroke:#181818;stroke-width:0.5;" width="4" x="2116.8214" y="212.29"/><rect fill="#F1F1F1" height="2" style="stroke:#181818;stroke-width:0.5;" width="4" x="2116.8214" y="216.29"/><text fill="#000000" font-family="sans-serif" font-size="14" lengthAdjust="spacing" textLength="83.6514" x="2030.17" y="238.2851">UserService</text></g><!--entity ArtistRepository--><g class="entity" data-qualified-name="chora.repository.ArtistRepository" data-source-line="53" id="ent0026"><rect fill="#F1F1F1" height="46.2969" rx="2.5" ry="2.5" style="stroke:#181818;stroke-width:0.5;" width="152.5674" x="1363.72" y="326.59"/><rect fill="#F1F1F1" height="10" style="stroke:#181818;stroke-width:0.5;" width="15" x="1496.2874" y="331.59"/><rect fill="#F1F1F1" height="2" style="stroke:#181818;stroke-width:0.5;" width="4" x="1494.2874" y="333.59"/><rect fill="#F1F1F1" height="2" style="stroke:#181818;stroke-width:0.5;" width="4" x="1494.2874" y="337.59"/><text fill="#000000" font-family="sans-serif" font-size="14" lengthAdjust="spacing" textLength="112.5674" x="1378.72" y="359.5851">ArtistRepository</text></g><!--entity SongRepository--><g class="entity" data-qualified-name="chora.repository.SongRepository" data-source-line="54" id="ent0027"><rect fill="#F1F1F1" height="46.2969" rx="2.5" ry="2.5" style="stroke:#181818;stroke-width:0.5;" width="150.2842" x="1550.86" y="326.59"/><rect fill="#F1F1F1" height="10" style="stroke:#181818;stroke-width:0.5;" width="15" x="1681.1442" y="331.59"/><rect fill="#F1F1F1" height="2" style="stroke:#181818;stroke-width:0.5;" width="4" x="1679.1442" y="333.59"/><rect fill="#F1F1F1" height="2" style="stroke:#181818;stroke-width:0.5;" width="4" x="1679.1442" y="337.59"/><text fill="#000000" font-family="sans-serif" font-size="14" lengthAdjust="spacing" textLength="110.2842" x="1565.86" y="359.5851">SongRepository</text></g><!--entity session_factory--><g class="entity" data-qualified-name="chora.repository.session_factory" data-source-line="55" id="ent0028"><rect fill="#F1F1F1" height="46.2969" rx="2.5" ry="2.5" style="stroke:#181818;stroke-width:0.5;" width="148.124" x="1551.94" y="447.89"/><rect fill="#F1F1F1" height="10" style="stroke:#181818;stroke-width:0.5;" width="15" x="1680.064" y="452.89"/><rect fill="#F1F1F1" height="2" style="stroke:#181818;stroke-width:0.5;" width="4" x="1678.064" y="454.89"/><rect fill="#F1F1F1" height="2" style="stroke:#181818;stroke-width:0.5;" width="4" x="1678.064" y="458.89"/><text fill="#000000" font-family="sans-serif" font-size="14" lengthAdjust="spacing" textLength="108.124" x="1566.94" y="480.8851">session_factory</text></g><!--entity Artist--><g class="entity" data-qualified-name="chora.entity.Artist" data-source-line="59" id="ent0030"><rect fill="#F1F1F1" height="46.2969" rx="2.5" ry="2.5" style="stroke:#181818;stroke-width:0.5;" width="77.4951" x="1120.25" y="447.89"/><rect fill="#F1F1F1" height="10" style="stroke:#181818;stroke-width:0.5;" width="15" x="1177.7451" y="452.89"/><rect fill="#F1F1F1" height="2" style="stroke:#181818;stroke-width:0.5;" width="4" x="1175.7451" y="454.89"/><rect fill="#F1F1F1" height="2" style="stroke:#181818;stroke-width:0.5;" width="4" x="1175.7451" y="458.89"/><text fill="#000000" font-family="sans-serif" font-size="14" lengthAdjust="spacing" textLength="37.4951" x="1135.25" y="480.8851">Artist</text></g><!--entity Song--><g class="entity" data-qualified-name="chora.entity.Song" data-source-line="60" id="ent0031"><rect fill="#F1F1F1" height="46.2969" rx="2.5" ry="2.5" style="stroke:#181818;stroke-width:0.5;" width="75.2119" x="1232.39" y="447.89"/><rect fill="#F1F1F1" height="10" style="stroke:#181818;stroke-width:0.5;" width="15" x="1287.6019" y="452.89"/><rect fill="#F1F1F1" height="2" style="stroke:#181818;stroke-width:0.5;" width="4" x="1285.6019" y="454.89"/><rect fill="#F1F1F1" height="2" style="stroke:#181818;stroke-width:0.5;" width="4" x="1285.6019" y="458.89"/><text fill="#000000" font-family="sans-serif" font-size="14" lengthAdjust="spacing" textLength="35.2119" x="1247.39" y="480.8851">Song</text></g><!--entity Vertrag--><g class="entity" data-qualified-name="chora.entity.Vertrag" data-source-line="61" id="ent0032"><rect fill="#F1F1F1" height="46.2969" rx="2.5" ry="2.5" style="stroke:#181818;stroke-width:0.5;" width="92.6572" x="1062.67" y="569.18"/><rect fill="#F1F1F1" height="10" style="stroke:#181818;stroke-width:0.5;" width="15" x="1135.3272" y="574.18"/><rect fill="#F1F1F1" height="2" style="stroke:#181818;stroke-width:0.5;" width="4" x="1133.3272" y="576.18"/><rect fill="#F1F1F1" height="2" style="stroke:#181818;stroke-width:0.5;" width="4" x="1133.3272" y="580.18"/><text fill="#000000" font-family="sans-serif" font-size="14" lengthAdjust="spacing" textLength="52.6572" x="1077.67" y="602.1751">Vertrag</text></g><!--entity song_artist--><g class="entity" data-qualified-name="chora.entity.song_artist" data-source-line="62" id="ent0033"><rect fill="#F1F1F1" height="46.2969" rx="2.5" ry="2.5" style="stroke:#181818;stroke-width:0.5;" width="117.1162" x="1190.44" y="569.18"/><rect fill="#F1F1F1" height="10" style="stroke:#181818;stroke-width:0.5;" width="15" x="1287.5562" y="574.18"/><rect fill="#F1F1F1" height="2" style="stroke:#181818;stroke-width:0.5;" width="4" x="1285.5562" y="576.18"/><rect fill="#F1F1F1" height="2" style="stroke:#181818;stroke-width:0.5;" width="4" x="1285.5562" y="580.18"/><text fill="#000000" font-family="sans-serif" font-size="14" lengthAdjust="spacing" textLength="77.1162" x="1205.44" y="602.1751">song_artist</text></g><!--entity graphql--><g class="entity" data-qualified-name="chora.config.graphql" data-source-line="66" id="ent0035"><rect fill="#F1F1F1" height="46.2969" rx="2.5" ry="2.5" style="stroke:#181818;stroke-width:0.5;" width="93.7578" x="78.12" y="326.59"/><rect fill="#F1F1F1" height="10" style="stroke:#181818;stroke-width:0.5;" width="15" x="151.8778" y="331.59"/><rect fill="#F1F1F1" height="2" style="stroke:#181818;stroke-width:0.5;" width="4" x="149.8778" y="333.59"/><rect fill="#F1F1F1" height="2" style="stroke:#181818;stroke-width:0.5;" width="4" x="149.8778" y="337.59"/><text fill="#000000" font-family="sans-serif" font-size="14" lengthAdjust="spacing" textLength="53.7578" x="93.12" y="359.5851">graphql</text></g><!--entity server--><g class="entity" data-qualified-name="chora.config.server" data-source-line="67" id="ent0036"><rect fill="#F1F1F1" height="46.2969" rx="2.5" ry="2.5" style="stroke:#181818;stroke-width:0.5;" width="84.3174" x="206.84" y="326.59"/><rect fill="#F1F1F1" height="10" style="stroke:#181818;stroke-width:0.5;" width="15" x="271.1574" y="331.59"/><rect fill="#F1F1F1" height="2" style="stroke:#181818;stroke-width:0.5;" width="4" x="269.1574" y="333.59"/><rect fill="#F1F1F1" height="2" style="stroke:#181818;stroke-width:0.5;" width="4" x="269.1574" y="337.59"/><text fill="#000000" font-family="sans-serif" font-size="14" lengthAdjust="spacing" textLength="44.3174" x="221.84" y="359.5851">server</text></g><!--entity tls--><g class="entity" data-qualified-name="chora.config.tls" data-source-line="68" id="ent0037"><rect fill="#F1F1F1" height="46.2969" rx="2.5" ry="2.5" style="stroke:#181818;stroke-width:0.5;" width="56.6729" x="79.66" y="447.89"/><rect fill="#F1F1F1" height="10" style="stroke:#181818;stroke-width:0.5;" width="15" x="116.3329" y="452.89"/><rect fill="#F1F1F1" height="2" style="stroke:#181818;stroke-width:0.5;" width="4" x="114.3329" y="454.89"/><rect fill="#F1F1F1" height="2" style="stroke:#181818;stroke-width:0.5;" width="4" x="114.3329" y="458.89"/><text fill="#000000" font-family="sans-serif" font-size="14" lengthAdjust="spacing" textLength="16.6729" x="94.66" y="480.8851">tls</text></g><!--entity dev_modus--><g class="entity" data-qualified-name="chora.config.dev_modus" data-source-line="69" id="ent0038"><rect fill="#F1F1F1" height="46.2969" rx="2.5" ry="2.5" style="stroke:#181818;stroke-width:0.5;" width="120.042" x="170.98" y="447.89"/><rect fill="#F1F1F1" height="10" style="stroke:#181818;stroke-width:0.5;" width="15" x="271.022" y="452.89"/><rect fill="#F1F1F1" height="2" style="stroke:#181818;stroke-width:0.5;" width="4" x="269.022" y="454.89"/><rect fill="#F1F1F1" height="2" style="stroke:#181818;stroke-width:0.5;" width="4" x="269.022" y="458.89"/><text fill="#000000" font-family="sans-serif" font-size="14" lengthAdjust="spacing" textLength="80.042" x="185.98" y="480.8851">dev_modus</text></g><!--entity postgres_db--><g class="entity" data-qualified-name="PostgreSQL.postgres_db" data-source-line="74" id="ent0040"><rect fill="#F1F1F1" height="46.2969" rx="2.5" ry="2.5" style="stroke:#181818;stroke-width:0.5;" width="125.5586" x="2574.22" y="569.18"/><rect fill="#F1F1F1" height="10" style="stroke:#181818;stroke-width:0.5;" width="15" x="2679.7786" y="574.18"/><rect fill="#F1F1F1" height="2" style="stroke:#181818;stroke-width:0.5;" width="4" x="2677.7786" y="576.18"/><rect fill="#F1F1F1" height="2" style="stroke:#181818;stroke-width:0.5;" width="4" x="2677.7786" y="580.18"/><text fill="#000000" font-family="sans-serif" font-size="14" lengthAdjust="spacing" textLength="85.5586" x="2589.22" y="602.1751">postgres_db</text></g><!--entity keycloak_server--><g class="entity" data-qualified-name="Keycloak.keycloak_server" data-source-line="78" id="ent0042"><rect fill="#F1F1F1" height="46.2969" rx="2.5" ry="2.5" style="stroke:#181818;stroke-width:0.5;" width="153.1621" x="2574.42" y="326.59"/><rect fill="#F1F1F1" height="10" style="stroke:#181818;stroke-width:0.5;" width="15" x="2707.5821" y="331.59"/><rect fill="#F1F1F1" height="2" style="stroke:#181818;stroke-width:0.5;" width="4" x="2705.5821" y="333.59"/><rect fill="#F1F1F1" height="2" style="stroke:#181818;stroke-width:0.5;" width="4" x="2705.5821" y="337.59"/><text fill="#000000" font-family="sans-serif" font-size="14" lengthAdjust="spacing" textLength="113.1621" x="2589.42" y="359.5851">keycloak_server</text></g><!--link artist_router to ArtistService--><g class="link" data-entity-1="ent0004" data-entity-2="ent0019" data-link-type="dependency" data-source-line="81" id="lnk43"><path d="M466.07,130.75 C480.51,139.93 498.35,149.48 516,154.29 C576.15,170.68 1017.17,144.78 1077,162.29 C1106.03,170.79 1130.1506,186.0627 1150.2706,201.3327" fill="none" id="artist_router-to-ArtistService" style="stroke:#181818;stroke-width:1;"/><polygon fill="#181818" points="1155.05,204.96,1150.2991,196.3328,1151.0672,201.9372,1145.4627,202.7053,1155.05,204.96" style="stroke:#181818;stroke-width:1;"/></g><!--link artist_write_router to ArtistWriteService--><g class="link" data-entity-1="ent0005" data-entity-2="ent0020" data-link-type="dependency" data-source-line="82" id="lnk44"><path d="M1061.75,115.88 C1167.21,125.4 1352.84,141.84 1512,154.29 C1537.32,156.27 1601.91,154.27 1626,162.29 C1653.52,171.46 1676.1821,186.2115 1695.4921,201.1315" fill="none" id="artist_write_router-to-ArtistWriteService" style="stroke:#181818;stroke-width:1;"/><polygon fill="#181818" points="1700.24,204.8,1695.5638,196.132,1696.2834,201.7429,1690.6725,202.4625,1700.24,204.8" style="stroke:#181818;stroke-width:1;"/></g><!--link song_router to SongService--><g class="link" data-entity-1="ent0006" data-entity-2="ent0021" data-link-type="dependency" data-source-line="83" id="lnk45"><path d="M625.65,130.76 C639.9,139.93 657.53,149.49 675,154.29 C706.55,162.97 1233.21,151.21 1264,162.29 C1287.94,170.91 1305.8612,185.5336 1320.9212,200.7636" fill="none" id="song_router-to-SongService" style="stroke:#181818;stroke-width:1;"/><polygon fill="#181818" points="1325.14,205.03,1321.6561,195.8179,1321.6244,201.4747,1315.9676,201.4429,1325.14,205.03" style="stroke:#181818;stroke-width:1;"/></g><!--link song_write_router to SongWriteService--><g class="link" data-entity-1="ent0007" data-entity-2="ent0022" data-link-type="dependency" data-source-line="84" id="lnk46"><path d="M814.03,130.77 C831.98,139.95 853.93,149.5 875,154.29 C934.71,167.86 1367.43,144.43 1426,162.29 C1453.95,170.81 1476.7553,185.9612 1495.8253,201.2212" fill="none" id="song_write_router-to-SongWriteService" style="stroke:#181818;stroke-width:1;"/><polygon fill="#181818" points="1500.51,204.97,1495.9821,196.2237,1496.6061,201.846,1490.9837,202.47,1500.51,204.97" style="stroke:#181818;stroke-width:1;"/></g><!--link graphql_types to ArtistWriteService--><g class="link" data-entity-1="ent0013" data-entity-2="ent0020" data-link-type="dependency" data-source-line="85" id="lnk47"><path d="M1727,130.58 C1727,151.91 1727,177.81 1727,199.1" fill="none" id="graphql_types-to-ArtistWriteService" style="stroke:#181818;stroke-width:1;"/><polygon fill="#181818" points="1727,205.1,1731,196.1,1727,200.1,1723,196.1,1727,205.1" style="stroke:#181818;stroke-width:1;"/></g><!--link schema to ArtistService--><g class="link" data-entity-1="ent0012" data-entity-2="ent0019" data-link-type="dependency" data-source-line="86" id="lnk48"><path d="M1527.31,109.19 C1464.38,112.17 1351.38,123.08 1264,162.29 C1241.27,172.49 1223.7665,186.3256 1208.3265,200.8056" fill="none" id="schema-to-ArtistService" style="stroke:#181818;stroke-width:1;"/><polygon fill="#181818" points="1203.95,204.91,1213.251,201.6711,1207.5971,201.4897,1207.7785,195.8357,1203.95,204.91" style="stroke:#181818;stroke-width:1;"/></g><!--link schema to ArtistWriteService--><g class="link" data-entity-1="ent0012" data-entity-2="ent0020" data-link-type="dependency" data-source-line="87" id="lnk49"><path d="M1603.59,130.58 C1630.68,151.84 1666.4299,179.9059 1693.5599,201.1959" fill="none" id="schema-to-ArtistWriteService" style="stroke:#181818;stroke-width:1;"/><polygon fill="#181818" points="1698.28,204.9,1693.6692,196.1971,1694.3465,201.8133,1688.7304,202.4906,1698.28,204.9" style="stroke:#181818;stroke-width:1;"/></g><!--link ArtistService to ArtistRepository--><g class="link" data-entity-1="ent0019" data-entity-2="ent0026" data-link-type="dependency" data-source-line="89" id="lnk50"><path d="M1219.88,252 C1233.59,259.83 1249.31,268.44 1264,275.59 C1302.23,294.21 1340.8405,310.3634 1375.3805,324.0234" fill="none" id="ArtistService-to-ArtistRepository" style="stroke:#181818;stroke-width:1;"/><polygon fill="#181818" points="1380.96,326.23,1374.0618,319.2004,1376.3104,324.3912,1371.1197,326.6398,1380.96,326.23" style="stroke:#181818;stroke-width:1;"/></g><!--link ArtistWriteService to ArtistRepository--><g class="link" data-entity-1="ent0020" data-entity-2="ent0026" data-link-type="dependency" data-source-line="90" id="lnk51"><path d="M1685.93,252.09 C1668.04,260.92 1646.51,270.2 1626,275.59 C1585.88,286.14 1571.99,269.42 1533,283.59 C1507.25,292.95 1486.6309,307.4869 1468.9709,322.3469" fill="none" id="ArtistWriteService-to-ArtistRepository" style="stroke:#181818;stroke-width:1;"/><polygon fill="#181818" points="1464.38,326.21,1473.8418,323.4761,1468.2058,322.9908,1468.6911,317.3548,1464.38,326.21" style="stroke:#181818;stroke-width:1;"/></g><!--link ArtistWriteService to SongRepository--><g class="link" data-entity-1="ent0020" data-entity-2="ent0027" data-link-type="dependency" data-source-line="91" id="lnk52"><path d="M1708,251.88 C1689.95,273.21 1666.8165,300.5204 1648.7865,321.8204" fill="none" id="ArtistWriteService-to-SongRepository" style="stroke:#181818;stroke-width:1;"/><polygon fill="#181818" points="1644.91,326.4,1653.7778,322.115,1648.1404,322.5837,1647.6717,316.9463,1644.91,326.4" style="stroke:#181818;stroke-width:1;"/></g><!--link SongService to SongRepository--><g class="link" data-entity-1="ent0021" data-entity-2="ent0027" data-link-type="dependency" data-source-line="92" id="lnk53"><path d="M1376.98,252.04 C1391.31,260.98 1408.82,270.35 1426,275.59 C1472.04,289.62 1488.71,267.31 1534,283.59 C1559.6,292.79 1579.9595,307.3111 1597.3995,322.2211" fill="none" id="SongService-to-SongRepository" style="stroke:#181818;stroke-width:1;"/><polygon fill="#181818" points="1601.96,326.12,1597.7185,317.2313,1598.1596,322.8709,1592.5199,323.312,1601.96,326.12" style="stroke:#181818;stroke-width:1;"/></g><!--link SongWriteService to SongRepository--><g class="link" data-entity-1="ent0022" data-entity-2="ent0027" data-link-type="dependency" data-source-line="93" id="lnk54"><path d="M1544.81,251.88 C1562.69,273.21 1585.5649,300.5024 1603.4249,321.8024" fill="none" id="SongWriteService-to-SongRepository" style="stroke:#181818;stroke-width:1;"/><polygon fill="#181818" points="1607.28,326.4,1604.5624,316.9335,1604.0674,322.5686,1598.4323,322.0736,1607.28,326.4" style="stroke:#181818;stroke-width:1;"/></g><!--link TokenService to keycloak_server--><g class="link" data-entity-1="ent0023" data-entity-2="ent0042" data-link-type="dependency" data-source-line="94" id="lnk55"><path d="M1947.21,251.95 C1962.21,260.75 1980.38,270.05 1998,275.59 C2199.06,338.77 2444.0201,348.8252 2568.1301,349.5452" fill="none" id="TokenService-to-keycloak_server" style="stroke:#181818;stroke-width:1;"/><polygon fill="#181818" points="2574.13,349.58,2565.1534,345.5279,2569.1301,349.551,2565.1069,353.5277,2574.13,349.58" style="stroke:#181818;stroke-width:1;"/></g><!--link UserService to keycloak_server--><g class="link" data-entity-1="ent0024" data-entity-2="ent0042" data-link-type="dependency" data-source-line="95" id="lnk56"><path d="M2119.68,251.87 C2137.58,260.45 2158.88,269.6 2179,275.59 C2314.71,315.98 2473.3824,334.522 2568.0024,342.722" fill="none" id="UserService-to-keycloak_server" style="stroke:#181818;stroke-width:1;"/><polygon fill="#181818" points="2573.98,343.24,2565.359,338.4779,2568.9987,342.8083,2564.6683,346.448,2573.98,343.24" style="stroke:#181818;stroke-width:1;"/></g><!--link ArtistRepository to session_factory--><g class="link" data-entity-1="ent0026" data-entity-2="ent0028" data-link-type="dependency" data-source-line="97" id="lnk57"><path d="M1474.99,373.18 C1508.13,394.44 1552.6093,422.9611 1585.8093,444.2511" fill="none" id="ArtistRepository-to-session_factory" style="stroke:#181818;stroke-width:1;"/><polygon fill="#181818" points="1590.86,447.49,1585.4431,439.2646,1586.6511,444.791,1581.1247,445.9989,1590.86,447.49" style="stroke:#181818;stroke-width:1;"/></g><!--link SongRepository to session_factory--><g class="link" data-entity-1="ent0027" data-entity-2="ent0028" data-link-type="dependency" data-source-line="98" id="lnk58"><path d="M1626,373.18 C1626,394.51 1626,420.4 1626,441.7" fill="none" id="SongRepository-to-session_factory" style="stroke:#181818;stroke-width:1;"/><polygon fill="#181818" points="1626,447.7,1630,438.7,1626,442.7,1622,438.7,1626,447.7" style="stroke:#181818;stroke-width:1;"/></g><!--link session_factory to postgres_db--><g class="link" data-entity-1="ent0028" data-entity-2="ent0040" data-link-type="dependency" data-source-line="99" id="lnk59"><path d="M1700.34,480.81 C1891.18,503.33 2389.8813,562.1668 2567.8313,583.1668" fill="none" id="session_factory-to-postgres_db" style="stroke:#181818;stroke-width:1;"/><polygon fill="#181818" points="2573.79,583.87,2565.3208,578.8428,2568.8245,583.284,2564.3832,586.7877,2573.79,583.87" style="stroke:#181818;stroke-width:1;"/></g><!--link ArtistRepository to Artist--><g class="link" data-entity-1="ent0026" data-entity-2="ent0030" data-link-type="dependency" data-source-line="100" id="lnk60"><path d="M1363.32,357.27 C1317.56,363.96 1259.83,377.5 1215,404.89 C1197.69,415.46 1186.4101,428.2741 1176.4101,442.5641" fill="none" id="ArtistRepository-to-Artist" style="stroke:#181818;stroke-width:1;stroke-dasharray:7,7;"/><polygon fill="#181818" points="1172.97,447.48,1181.4074,442.3996,1175.8367,443.3834,1174.8529,437.8128,1172.97,447.48" style="stroke:#181818;stroke-width:1;"/></g><!--link SongRepository to Song--><g class="link" data-entity-1="ent0027" data-entity-2="ent0031" data-link-type="dependency" data-source-line="101" id="lnk61"><path d="M1589.81,373.34 C1573.4,382.4 1553.37,391.86 1534,396.89 C1493.96,407.28 1386.58,389.95 1348,404.89 C1324.97,413.81 1307.9541,428.1206 1293.4941,443.1906" fill="none" id="SongRepository-to-Song" style="stroke:#181818;stroke-width:1;stroke-dasharray:7,7;"/><polygon fill="#181818" points="1289.34,447.52,1298.4574,443.7954,1292.8018,443.9122,1292.6849,438.2566,1289.34,447.52" style="stroke:#181818;stroke-width:1;"/></g><!--link Artist to song_artist--><g class="link" data-entity-1="ent0030" data-entity-2="ent0033" data-link-type="dependency" data-source-line="102" id="lnk62"><path d="M1175.93,494.47 C1192.02,515.8 1212.4653,542.9111 1228.5353,564.2011" fill="none" id="Artist-to-song_artist" style="stroke:#181818;stroke-width:1;stroke-dasharray:7,7;"/><polygon fill="#181818" points="1232.15,568.99,1229.9205,559.3968,1229.1377,564.9992,1223.5353,564.2165,1232.15,568.99" style="stroke:#181818;stroke-width:1;"/></g><!--link Song to song_artist--><g class="link" data-entity-1="ent0031" data-entity-2="ent0033" data-link-type="dependency" data-source-line="103" id="lnk63"><path d="M1266.05,494.47 C1262.3,515.8 1257.7208,541.791 1253.9708,563.081" fill="none" id="Song-to-song_artist" style="stroke:#181818;stroke-width:1;stroke-dasharray:7,7;"/><polygon fill="#181818" points="1252.93,568.99,1258.4306,560.8203,1253.7973,564.0658,1250.5519,559.4326,1252.93,568.99" style="stroke:#181818;stroke-width:1;"/></g><!--link Artist to Vertrag--><g class="link" data-entity-1="ent0030" data-entity-2="ent0032" data-link-type="dependency" data-source-line="104" id="lnk64"><path d="M1149.6,494.47 C1140.66,515.8 1129.6108,542.167 1120.6808,563.457" fill="none" id="Artist-to-Vertrag" style="stroke:#181818;stroke-width:1;stroke-dasharray:7,7;"/><polygon fill="#181818" points="1118.36,568.99,1125.5298,562.2377,1120.294,564.3792,1118.1525,559.1433,1118.36,568.99" style="stroke:#181818;stroke-width:1;"/></g><g class="footer" data-source-line="106"><text fill="#888888" font-family="sans-serif" font-size="10" lengthAdjust="spacing" textLength="29.6777" x="1361.1611" y="673.7622">Chora</text></g><?plantuml-src bLJRRjiu47ttLynRMY2nY_QjMmHGZQHncqsylcoG5Wk3baOY4LfKXvGDeTX_tw6aM1UhsJOlyGpFd3bpqnbCJLQGIgI3LzFNyFRDstTm0HcXnTJ1vnmfmHI-gjqEQIVIz1nkJ2XjA7EDy4MGjfHB79sDpc0bbUL8av3O0V-C2H6iYTr14Bw7mkGGYXG88sKTgMtk49G3aKOJGx0paOeBfc5NdaP8u2I2uwmMJ5mQd-xMy0bJ9A5Xdc-r2k5MXPXQ1C6PlSTAZ63hQNp0jLUmh1N0jM5UuPJX8b3nEy4UoR8DxvvJr7pdO8WvNWddPHEOp8UzPgq5QE6QoF5WvKs14QYq99Ocusea4t9z1wKrR15oYt6kpvc1iV0mMztShrSGt3t2Gx1O17UhnpyOwwJXLznZnQHscLPCp3MHI5t1qfdWpwl5z8OZWe-pszdgaVN3zMnrTxLSmlNz0WAO1ulLRBg-3HOmNo_czykhCS0IlIWUtqkzZSlfS0CZT49fMzNyoEEqh4n78CKUUQmXgZth4X3oIlt_p9X3Q9CcPOMCRLh8mcOnfCQTWsM17wHpcNq_cHmEXt6IvcD3oKHN97PoEHunqvnmh_00KKwXX0-1TfVHYFyo4Jw9126KXWJyEDh4BUKf_XXz4-HuMflAyS_HFf1os7Wj2-rPFOJ8dMmiYKAtRIjp5vb3UlJyssZZaZFvNMz4fhmWlYtS2OvvzhiYGzk9i1ZcdBtmS6UUCDrOf3rtXADufwXbaj5eDuJVSyM7rzVPuIn3F6LGjc1vvAZi1rzlurno3xfM3x3omXfppGcELYilOMQiSeQA9lNYwAkfEmwUkZ-zJIp2ojDYuuzMtPUAgOxdVtyZEHB9y_H4_ToA3KqQgyJ7rfqlSz6-7A3JF89l4Uut_A7Aot6qGkV6keHm-TUj3yygoswYRIV15on2RSIJnppLlpVF6HZNsqMukBY4as4CxMSRsPj2Ut4hM7TmfwlSe7fKtNryAMUrmSFw1nwxuVtzQoCxUp0G_FlOa-rgj-S5oAzGTIwWmfoClNCNFy4Cd4M5FBc4leQVmVgU2jVPsu6Su_6nkGEfojVws6fGvUlSMuKOUkZ47Azr51lZlzHJ_m7_3m00?></g></svg>